<svg width="138" height="45" viewBox="0 0 138 45" fill="none" xmlns="http://www.w3.org/2000/svg">
  <path d="M32.6999 15C32.6999 19.7 40.7999 20 40.7999 23.6C40.7999 24.9 39.5999 25.5 38.5999 25.5C33.7999 25.5 31.0999 18.8 30.2999 11.3C29.9999 8.49997 28.8999 7.09997 26.0999 5.89997C19.3999 3.09997 9.4999 1.49998 3.3999 0.599976C4.0999 3.29998 13.1999 4.89997 16.9999 5.29997C16.6999 5.79997 16.1999 6.69998 15.8999 7.19998C12.0999 6.19998 5.5999 5.29998 0.899902 4.69998C2.3999 7.69998 9.3999 8.19998 14.9999 9.19998L14.3999 10.8C9.9999 10.1 5.4999 9.59997 1.2999 9.59997C2.8999 12 9.2999 12.5 13.8999 12.6L13.4999 14.2C10.7999 14.1 7.7999 14.1 4.8999 14.2C5.8999 15.9 8.5999 16.2 11.0999 16.4C13.7999 16.7 18.0999 17.1 19.5999 19.6C23.4999 25.5 26.3999 30 32.3999 30C34.1999 30 35.6999 29.7 36.4999 29.4C35.9999 31.4 31.3999 30.4 28.8999 34.3C27.3999 36.6 27.3999 39.2 24.3999 39.9C22.4999 40.4 21.2999 41.2 21.2999 42.7C24.3999 42.6 26.6999 42.2 29.8999 41.2C41.3999 37.7 45.9999 31.2 45.9999 25.9C45.9999 23 44.3999 20.1 39.8999 18.1L39.9999 17.9C41.5999 18.2 46.4999 21 48.0999 21.7C50.0999 22.6 51.7999 23.1 53.5999 23.1C48.6999 19.8 44.2999 17.6 40.1999 16.3C38.7999 15.8 37.9999 15.5 37.9999 15C37.9999 14.5 38.7999 14.5 38.7999 14.1C38.7999 13.8 38.2999 13.7 38.2999 13.1C38.2999 12.7 38.5999 12.3 39.0999 12.3C39.5999 12.3 39.8999 12.6 39.9999 13.1C40.0999 13.4 40.1999 13.8 40.6999 14C44.7999 16 50.4999 20 54.0999 22.9V23.6C54.4999 23.6 54.7999 23.2 54.7999 22.9C54.7999 22.7 54.6999 22.4 54.4999 22.3C51.9999 20 44.6999 13.5 39.1999 11.2C37.9999 10.7 36.6999 10.5 35.7999 10.5V10.9H34.3999L34.6999 11.4L33.3999 11.6L33.8999 12.3L32.8999 12.7L33.3999 13.5L32.6999 14L33.0999 14.7L32.6999 15Z" fill="white"/>
  <path d="M88.5998 28C87.3998 28 86.4998 28.2 85.5998 28.9L84.7998 30.3V28.3H82.2998V40.2H84.7998V34.9C84.7998 31.2 86.1998 29.8 87.8998 29.8C89.5998 29.8 90.2998 30.7 90.3998 32.1C90.3998 32.7 90.3998 33.2 90.3998 33.8V40.2H92.8998V33.5C92.8998 32.5 92.8998 32 92.7998 31.4C92.5998 29.3 91.1998 28 88.5998 28Z" fill="white"/>
  <path d="M104.1 29.9L103.3 28.7C102.7 28.2 101.5 28 100.5 28C97.3998 28 94.7998 30.1 94.7998 34.4C94.7998 37.9 96.6998 40.5 100.1 40.5C101.3 40.5 102.5 40.1 103.2 39.6L104.1 38.3V44.6H106.6V28.3H104.1V29.9ZM104.1 34.4C104.1 37.6 102.5 38.7 100.7 38.7C98.5998 38.7 97.3998 36.8 97.3998 34.2C97.3998 31.3 98.8998 29.8 100.8 29.8C102.4 29.8 104.1 30.9 104.1 33.8V34.4Z" fill="white"/>
  <path d="M117 33.9001C117 37.3001 115.7 38.7001 114 38.7001C112.5 38.7001 111.6 37.9 111.5 36.6C111.4 36 111.4 35.3 111.4 35V28.4001H109V35.5C109 36.5 109 37 109.1 37.6C109.4 39.2 110.8 40.6 113.3 40.6C114.5 40.6 115.4 40.4 116.3 39.7L117.1 38.2001V40.2H119.5V28.3H117V33.9001Z" fill="white"/>
  <path d="M124.5 24.4H122V26.6H124.5V24.4Z" fill="white"/>
  <path d="M124.5 28.3H122V40.2H124.5V28.3Z" fill="white"/>
  <path d="M137.6 31.4C137.4 29.3 135.9 28 133.4 28C132.2 28 131.3 28.2 130.4 28.9L129.6 30.3V28.3H127.1V40.2H129.6V34.9C129.6 31.2 131 29.8 132.7 29.8C134.4 29.8 135.1 30.7 135.2 32.1C135.2 32.7 135.2 33.2 135.2 33.8V40.2H137.7V33.5C137.6 32.5 137.6 32 137.6 31.4Z" fill="white"/>
  <path d="M63.3998 31.1C60.9998 30.5 60.0998 29.8 60.0998 28.4C60.0998 26.9 61.1998 26.3 62.6998 26.3C64.1998 26.3 65.1998 27.1 65.4998 28.5C66.4998 28.6 68.1998 29.1 68.1998 29.1C67.8998 26.4 66.1998 24.4 62.7998 24.4C59.8998 24.4 57.4998 26.1 57.4998 28.8C57.4998 31.5 59.3998 32.6 62.3998 33.3C64.8998 33.9 65.7998 34.7 65.7998 36.3C65.7998 37.7 64.4998 38.6 62.8998 38.6C61.0998 38.6 59.6998 37.6 59.2998 35.7H56.7998C57.0998 38.8 59.3998 40.5 62.8998 40.5C65.8998 40.5 68.3998 38.8 68.3998 36C68.3998 33.4 66.7998 31.9 63.3998 31.1Z" fill="white"/>
  <path d="M79.9 37.1V32.9C79.9 32.3 79.9 31.7 79.8 31.2C79.6 29.2 78.4 27.9 75.3 27.9C73.2 27.9 71.6 28.8 70.9 30.3C71.6 30.8 72.1 31.2 72.6 31.6C72.9 31 73.2 30.5 73.9 30.1L74 30C74.3 29.8 74.8 29.7 75.3 29.7C76.7 29.7 77.3 30.4 77.4 31.3C77.4 31.7 77.4 32.9 77.4 32.9H76.6C72.1 32.9 70 34.3 70 37C70 38.7 71 39.8 72.4 40.2C72.8 40.3 73.3 40.4 73.8 40.4C74.9 40.4 75.9 40.2 76.7 39.6L77.3 38.3L77.5 40H79.9V39.9C80 38.8 79.9 38 79.9 37.1ZM77.5 34.6V35.7C77.5 37.1 76.9 38.1 75.9 38.5C75.6 38.6 75.2 38.7 74.8 38.7C73.5 38.7 72.7 38.1 72.7 36.9C72.7 36.8 72.7 36.7 72.7 36.6C72.8 35.9 73.3 35.4 74 35C74.8 34.6 76 34.5 77.5 34.6Z" fill="white"/>
</svg>
